<svg width="26" height="27" viewBox="0 0 26 27" fill="none" xmlns="http://www.w3.org/2000/svg">
<path d="M13.1828 26.1526C15.6203 26.1526 17.7644 25.6103 19.615 24.526C21.4806 23.4265 22.9325 21.913 23.9708 19.9853C25.0239 18.0424 25.5506 15.8059 25.5506 13.2758C25.5506 10.7607 25.0314 8.53925 23.9933 6.61143C22.9551 4.66869 21.5031 3.14751 19.6375 2.04808C17.7869 0.948643 15.6354 0.398926 13.1828 0.398926C10.7755 0.398926 8.64648 0.941188 6.79591 2.02554C4.94534 3.10988 3.4934 4.62343 2.44008 6.56634C1.38695 8.49399 0.860291 10.7305 0.860291 13.2758C0.860291 15.7908 1.37188 18.0199 2.39505 19.9626C3.43311 21.8904 4.8776 23.404 6.72817 24.5034C8.57892 25.6029 10.7304 26.1526 13.1828 26.1526ZM13.1828 20.4145C11.272 20.4145 9.82019 19.7745 8.82717 18.4943C7.84904 17.1991 7.36016 15.4596 7.36016 13.2758C7.36016 11.1522 7.82652 9.43528 8.75943 8.12497C9.70724 6.79976 11.1817 6.13697 13.1828 6.13697C15.1238 6.13697 16.5832 6.78467 17.5612 8.07989C18.5542 9.3751 19.0507 11.107 19.0507 13.2758C19.0507 15.3693 18.5618 17.0861 17.5837 18.4265C16.6208 19.7518 15.1538 20.4145 13.1828 20.4145Z" fill="#23216E"/>
</svg>
