<svg width="23" height="27" viewBox="0 0 23 27" fill="none" xmlns="http://www.w3.org/2000/svg">
<path d="M11.8246 26.1526C15.0129 26.1526 17.5114 25.4373 19.3166 24.0064C21.1218 22.5756 22.0244 20.6103 22.0244 18.1102C22.0244 16.2126 21.4374 14.7141 20.2653 13.6147C19.1056 12.5153 17.1355 11.604 14.3515 10.8812C12.4559 10.3991 11.0408 10.0075 10.1081 9.70632C9.19132 9.40528 8.58132 9.11152 8.27987 8.82539C7.99437 8.53926 7.8525 8.18532 7.8525 7.76358C7.8525 7.05571 8.18943 6.51362 8.86682 6.13697C9.56016 5.76049 10.4698 5.60997 11.5976 5.68523C13.9897 5.86593 15.3002 6.8901 15.5254 8.75758L21.7992 7.62797C21.4835 5.41419 20.4001 3.6596 18.5488 2.36438C16.6993 1.05408 14.3373 0.398926 11.4628 0.398926C8.51392 0.398926 6.15905 1.09171 4.39821 2.47727C2.63914 3.86284 1.75783 5.73032 1.75783 8.07989C1.75783 9.94736 2.36783 11.4233 3.58605 12.5076C4.80428 13.5771 6.90382 14.4956 9.88289 15.2638C11.6437 15.7307 12.9364 16.1071 13.7645 16.3933C14.6068 16.6794 15.1495 16.9732 15.3888 17.2744C15.63 17.5605 15.7506 17.9446 15.7506 18.4265C15.7506 19.1946 15.4491 19.797 14.848 20.2338C14.2469 20.6554 13.3886 20.8663 12.275 20.8663C10.9202 20.8663 9.79954 20.5425 8.91291 19.8948C8.04047 19.2473 7.47481 18.3513 7.21946 17.2066L0.945679 18.1553C1.35175 20.7007 2.4955 22.6736 4.37692 24.0742C6.27253 25.4598 8.7551 26.1526 11.8246 26.1526Z" fill="#23216E"/>
</svg>
