<svg width="24" height="37" viewBox="0 0 24 37" fill="none" xmlns="http://www.w3.org/2000/svg">
<path d="M11.6903 26.1526C12.8339 26.1526 13.887 26.017 14.8501 25.7459C15.828 25.4749 16.7157 25.0908 17.5131 24.5938V27.0562C17.5433 27.9599 17.3099 28.7128 16.8134 29.3153C16.332 29.9328 15.6851 30.3922 14.8726 30.6934C14.0601 31.0097 13.1949 31.1678 12.2772 31.1678C11.4195 31.1678 10.6221 30.9795 9.88495 30.603C9.16271 30.2266 8.6059 29.6768 8.21472 28.9539L2.52754 31.7099C3.46027 33.2913 4.79181 34.5639 6.52215 35.5278C8.25249 36.5067 10.1557 36.9962 12.232 36.9962C14.0225 36.9962 15.6851 36.7552 17.2197 36.2733C18.7544 35.8064 20.0484 35.0911 21.1015 34.1271C22.1697 33.1633 22.8996 31.9359 23.2908 30.4449C23.4261 29.9177 23.5163 29.3831 23.5615 28.8408C23.6217 28.3138 23.6518 27.749 23.6518 27.1466V1.07662H18.2804V2.43219C17.4529 1.78449 16.5125 1.28749 15.4594 0.941188C14.4211 0.579621 13.2703 0.398926 12.0063 0.398926C9.67428 0.398926 7.64303 0.956276 5.91286 2.07062C4.18252 3.18514 2.8359 4.71377 1.87302 6.65669C0.92504 8.58434 0.451233 10.7908 0.451233 13.2758C0.451233 15.7156 0.9176 17.9068 1.85051 19.8497C2.79832 21.7925 4.11477 23.3287 5.7999 24.4583C7.48502 25.5878 9.44855 26.1526 11.6903 26.1526ZM12.6833 20.6856C11.3594 20.6856 10.2761 20.3542 9.43348 19.6916C8.59101 19.029 7.96647 18.1404 7.5604 17.0259C7.15414 15.8963 6.95092 14.6463 6.95092 13.2758C6.95092 11.9203 7.16158 10.6854 7.58291 9.57089C8.00423 8.44128 8.65111 7.54525 9.52373 6.88247C10.4114 6.20477 11.5399 5.86593 12.9091 5.86593C14.835 5.86593 16.2116 6.55126 17.0392 7.92173C17.8667 9.27712 18.2804 11.0619 18.2804 13.2758C18.2804 15.4896 17.8591 17.2818 17.0166 18.6523C16.189 20.0079 14.7447 20.6856 12.6833 20.6856Z" fill="#23216E"/>
</svg>
