<svg width="26" height="27" viewBox="0 0 26 27" fill="none" xmlns="http://www.w3.org/2000/svg">
<path d="M13.2322 26.1526C15.6697 26.1526 17.8138 25.6103 19.6643 24.526C21.5296 23.4265 22.9819 21.913 24.0193 19.9853C25.0726 18.0424 25.5992 15.8059 25.5992 13.2758C25.5992 10.7607 25.0815 8.53925 24.0423 6.61143C23.005 4.66869 21.5527 3.14751 19.6869 2.04808C17.8363 0.948643 15.6846 0.398926 13.2322 0.398926C10.8248 0.398926 8.69587 0.941188 6.8453 2.02554C4.99473 3.10988 3.54277 4.62343 2.48946 6.56634C1.43632 8.49399 0.909668 10.7305 0.909668 13.2758C0.909668 15.7908 1.42125 18.0199 2.44442 19.9626C3.48249 21.8904 4.92699 23.404 6.77756 24.5034C8.6283 25.6029 10.7798 26.1526 13.2322 26.1526ZM13.2322 20.4145C11.3213 20.4145 9.86941 19.7745 8.87639 18.4943C7.89844 17.1991 7.40954 15.4596 7.40954 13.2758C7.40954 11.1522 7.87591 9.43528 8.80882 8.12497C9.75663 6.79976 11.2311 6.13697 13.2322 6.13697C15.1732 6.13697 16.6326 6.78467 17.6106 8.07989C18.6036 9.3751 19.1001 11.107 19.1001 13.2758C19.1001 15.3693 18.611 17.0861 17.6331 18.4265C16.6702 19.7518 15.2032 20.4145 13.2322 20.4145Z" fill="#23216E"/>
</svg>
