<svg width="24" height="37" viewBox="0 0 24 37" fill="none" xmlns="http://www.w3.org/2000/svg">
<path d="M0.457153 36.3185H6.6405V24.5938C7.43846 25.0908 8.31799 25.4749 9.28087 25.7459C10.2597 26.017 11.3201 26.1526 12.4639 26.1526C14.7053 26.1526 16.67 25.5878 18.3546 24.4583C20.0392 23.3287 21.3479 21.7925 22.2806 19.8497C23.2293 17.9068 23.7028 15.7156 23.7028 13.2758C23.7028 10.7908 23.2222 8.58434 22.2593 6.65669C21.3106 4.71377 19.9718 3.18514 18.2411 2.07062C16.5104 0.956276 14.4801 0.398926 12.1482 0.398926C10.8839 0.398926 9.72597 0.579621 8.67265 0.941188C7.63353 1.28749 6.70079 1.78449 5.87445 2.43219V1.07662H0.457153V36.3185ZM11.4708 20.6856C9.42451 20.6856 7.98107 20.0079 7.137 18.6523C6.29471 17.2818 5.87445 15.4896 5.87445 13.2758C5.87445 11.0619 6.28763 9.27712 7.11574 7.92173C7.95803 6.55126 9.33407 5.86593 11.2456 5.86593C12.6146 5.86593 13.7353 6.20477 14.6077 6.88247C15.4961 7.54525 16.1505 8.44128 16.5707 9.57089C16.9928 10.6854 17.2038 11.9203 17.2038 13.2758C17.2038 14.6463 16.9999 15.8963 16.5938 17.0259C16.1877 18.1404 15.5635 19.029 14.7212 19.6916C13.8789 20.3542 12.7955 20.6856 11.4708 20.6856Z" fill="#23216E"/>
</svg>
