<svg width="36" height="26" viewBox="0 0 36 26" fill="none" xmlns="http://www.w3.org/2000/svg">
<path d="M0.219116 25.4751H6.40246V10.7005C6.40246 9.30007 6.78549 8.163 7.55331 7.28935C8.33531 6.40078 9.36558 5.9565 10.6459 5.9565C11.9847 5.9565 13.0309 6.40842 13.7828 7.31207C14.5488 8.20063 14.9336 9.45059 14.9336 11.0621V25.4751H21.0726V10.7005C21.0726 9.30007 21.4557 8.163 22.2235 7.28935C23.0055 6.40078 24.0357 5.9565 25.3142 5.9565C26.6548 5.9565 27.6993 6.40842 28.4511 7.31207C29.219 8.20063 29.6037 9.45059 29.6037 11.0621V25.4751H35.741V9.4355C35.741 6.76981 35.0264 4.6162 33.5971 2.9745C32.1838 1.3179 30.0843 0.489502 27.3003 0.489502C25.7363 0.489502 24.2999 0.828349 22.9895 1.50604C21.6808 2.18392 20.6364 3.11011 19.8526 4.28481C19.2213 3.14029 18.3187 2.22155 17.1448 1.52876C15.9709 0.835982 14.5116 0.489502 12.7667 0.489502C11.2913 0.489502 9.93834 0.783264 8.70415 1.37061C7.46997 1.94287 6.44679 2.73363 5.63464 3.74254V1.07685H0.219116V25.4751Z" fill="#23216E"/>
</svg>
