<svg width="24" height="26" viewBox="0 0 24 26" fill="none" xmlns="http://www.w3.org/2000/svg">
<path d="M10.3484 25.1979C12.1092 25.1979 13.6431 24.9041 14.9535 24.3168C16.2622 23.7294 17.3598 22.9463 18.2482 21.9674V24.4749H23.6638V0.0766602H17.4804V12.4566C17.4804 13.9627 17.3066 15.1824 16.9609 16.1163C16.631 17.035 16.2019 17.7352 15.6752 18.2172C15.1486 18.6842 14.5847 19.0003 13.9818 19.1661C13.3806 19.3317 12.8168 19.4146 12.2901 19.4146C10.9814 19.4146 9.96535 19.1208 9.24364 18.5335C8.53611 17.9461 8.02364 17.2157 7.708 16.3422C7.39236 15.4686 7.20438 14.6027 7.14409 13.7442C7.0838 12.8707 7.05367 12.1554 7.05367 11.598V0.0766602H0.824219V13.7669C0.824219 14.1734 0.854355 14.8211 0.914646 15.7096C0.974936 16.5982 1.14871 17.5847 1.43421 18.6691C1.7197 19.7383 2.19317 20.77 2.85636 21.764C3.53375 22.758 4.47358 23.5787 5.67762 24.2264C6.87989 24.8739 8.43858 25.1979 10.3484 25.1979Z" fill="#23216E"/>
</svg>
